{
.appVersion = "3217";
.formatVersion = 3;
DisplayStrings = (
"̄̄𐗁𐗁𐗙𐗙𐗍𐗍𐗉𐗉𐗤𐗤𐗄𐗄𐗩𐗩𐗏𐗏𐗡𐗡𐗫𐗫́́̇̇"
);
axes = (
{
name = Weight;
tag = wght;
}
);
customParameters = (
{
name = fsType;
value = (
);
},
{
name = "Use Typo Metrics";
value = 1;
}
);
date = "2024-09-25 08:23:17 +0000";
familyName = "Noto Serif Todhri";
fontMaster = (
{
axesValues = (
400
);
customParameters = (
{
name = hheaAscender;
value = 1069;
},
{
name = hheaDescender;
value = -293;
},
{
name = hheaLineGap;
value = 0;
},
{
name = winAscent;
value = 1069;
},
{
name = winDescent;
value = 389;
},
{
name = typoAscender;
value = 1069;
},
{
name = typoDescender;
value = -293;
},
{
name = typoLineGap;
value = 0;
},
{
name = underlinePosition;
value = -125;
},
{
name = underlineThickness;
value = 50;
}
);
id = "646242e4-8f4e-46bc-ac3c-6a140a20cfc2";
metricValues = (
{
},
{
pos = 800;
},
{
pos = -200;
},
{
pos = 714;
},
{
pos = 536;
}
);
name = Regular;
}
);
glyphs = (
{
glyphname = uni25CC;
layers = (
{
anchors = (
{
name = bottom;
pos = (298,0);
},
{
name = top;
pos = (297,560);
},
{
name = topright;
pos = (594,560);
}
);
layerId = "646242e4-8f4e-46bc-ac3c-6a140a20cfc2";
name = default;
shapes = (
{
closed = 1;
nodes = (
(323,501.613,o),
(312.857,488,o),
(297,488,c),
(283.493,488,o),
(271,500.494,o),
(271,514,cs),
(271,529.854,o),
(284.611,540,o),
(297,540,cs),
(311.795,540,o),
(323,528.8,o),
(323,514,cs)
);
},
{
closed = 1;
nodes = (
(239,483.613,o),
(228.857,470,o),
(213,470,c),
(199.493,470,o),
(187,482.494,o),
(187,496,cs),
(187,511.854,o),
(200.611,522,o),
(213,522,cs),
(227.795,522,o),
(239,510.8,o),
(239,496,cs)
);
},
{
closed = 1;
nodes = (
(407,483.613,o),
(396.857,470,o),
(381,470,c),
(367.493,470,o),
(355,482.494,o),
(355,496,cs),
(355,511.854,o),
(368.611,522,o),
(381,522,cs),
(395.795,522,o),
(407,510.8,o),
(407,496,cs)
);
},
{
closed = 1;
nodes = (
(481,436.613,o),
(470.857,423,o),
(455,423,c),
(441.493,423,o),
(429,435.494,o),
(429,449,cs),
(429,464.854,o),
(442.611,475,o),
(455,475,cs),
(469.795,475,o),
(481,463.8,o),
(481,449,cs)
);
},
{
closed = 1;
nodes = (
(165,436.613,o),
(154.857,423,o),
(139,423,c),
(125.493,423,o),
(113,435.494,o),
(113,449,cs),
(113,464.854,o),
(126.611,475,o),
(139,475,cs),
(153.795,475,o),
(165,463.8,o),
(165,449,cs)
);
},
{
closed = 1;
nodes = (
(118,362.613,o),
(107.857,349,o),
(92,349,c),
(78.495,349,o),
(66,361.493,o),
(66,375,cs),
(66,390.855,o),
(79.612,401,o),
(92,401,cs),
(106.798,401,o),
(118,389.798,o),
(118,375,cs)
);
},
{
closed = 1;
nodes = (
(528,362.613,o),
(517.857,349,o),
(502,349,c),
(488.493,349,o),
(476,361.494,o),
(476,375,cs),
(476,390.854,o),
(489.611,401,o),
(502,401,cs),
(516.795,401,o),
(528,389.8,o),
(528,375,cs)
);
},
{
closed = 1;
nodes = (
(100,278.613,o),
(89.857,265,o),
(74,265,c),
(60.495,265,o),
(48,277.493,o),
(48,291,cs),
(48,306.855,o),
(61.612,317,o),
(74,317,cs),
(88.798,317,o),
(100,305.798,o),
(100,291,cs)
);
},
{
closed = 1;
nodes = (
(546,278.613,o),
(535.857,265,o),
(520,265,c),
(506.493,265,o),
(494,277.494,o),
(494,291,cs),
(494,306.854,o),
(507.611,317,o),
(520,317,cs),
(534.795,317,o),
(546,305.8,o),
(546,291,cs)
);
},
{
closed = 1;
nodes = (
(118,194.613,o),
(107.857,181,o),
(92,181,c),
(78.495,181,o),
(66,193.493,o),
(66,207,cs),
(66,222.855,o),
(79.612,233,o),
(92,233,cs),
(106.798,233,o),
(118,221.798,o),
(118,207,cs)
);
},
{
closed = 1;
nodes = (
(528,194.613,o),
(517.857,181,o),
(502,181,c),
(488.493,181,o),
(476,193.494,o),
(476,207,cs),
(476,222.854,o),
(489.611,233,o),
(502,233,cs),
(516.795,233,o),
(528,221.8,o),
(528,207,cs)
);
},
{
closed = 1;
nodes = (
(165,120.613,o),
(154.857,107,o),
(139,107,c),
(125.493,107,o),
(113,119.494,o),
(113,133,cs),
(113,148.854,o),
(126.611,159,o),
(139,159,cs),
(153.795,159,o),
(165,147.8,o),
(165,133,cs)
);
},
{
closed = 1;
nodes = (
(481,120.613,o),
(470.857,107,o),
(455,107,c),
(441.493,107,o),
(429,119.494,o),
(429,133,cs),
(429,148.854,o),
(442.611,159,o),
(455,159,cs),
(469.795,159,o),
(481,147.8,o),
(481,133,cs)
);
},
{
closed = 1;
nodes = (
(239,73.614,o),
(228.857,60,o),
(213,60,c),
(199.493,60,o),
(187,72.494,o),
(187,86,cs),
(187,101.855,o),
(200.612,112,o),
(213,112,cs),
(227.795,112,o),
(239,100.8,o),
(239,86,cs)
);
},
{
closed = 1;
nodes = (
(407,73.614,o),
(396.857,60,o),
(381,60,c),
(367.493,60,o),
(355,72.494,o),
(355,86,cs),
(355,101.855,o),
(368.612,112,o),
(381,112,cs),
(395.795,112,o),
(407,100.8,o),
(407,86,cs)
);
},
{
closed = 1;
nodes = (
(323,55.614,o),
(312.857,42,o),
(297,42,c),
(283.493,42,o),
(271,54.494,o),
(271,68,cs),
(271,83.855,o),
(284.612,94,o),
(297,94,cs),
(311.795,94,o),
(323,82.8,o),
(323,68,cs)
);
}
);
width = 594;
}
);
unicode = 9676;
},
{
glyphname = diaeresiscomb;
layers = (
{
anchors = (
{
name = _top;
pos = (-164,560);
},
{
name = _topmark;
pos = (-164,594);
},
{
name = topmark;
pos = (-166,744);
}
);
layerId = "646242e4-8f4e-46bc-ac3c-6a140a20cfc2";
name = default;
shapes = (
{
closed = 1;
nodes = (
(-21,664.987,o),
(-28.574,632,o),
(-72,632,cs),
(-98.687,632,o),
(-123,644.058,o),
(-123,688,cs),
(-123,701.316,o),
(-123,744,o),
(-72,744,cs),
(-44.598,744,o),
(-21,731.402,o),
(-21,688,cs)
);
},
{
closed = 1;
nodes = (
(-211,664.987,o),
(-218.574,632,o),
(-262,632,cs),
(-288.687,632,o),
(-313,644.058,o),
(-313,688,cs),
(-313,701.316,o),
(-313,744,o),
(-262,744,cs),
(-234.598,744,o),
(-211,731.402,o),
(-211,688,cs)
);
}
);
width = 0;
}
);
unicode = 776;
},
{
glyphname = dotbelowcomb;
layers = (
{
anchors = (
{
name = _bottom;
pos = (-299,0);
},
{
name = _bottommark;
pos = (-299,0);
},
{
name = bottommark;
pos = (-299,-172);
}
);
layerId = "646242e4-8f4e-46bc-ac3c-6a140a20cfc2";
name = default;
shapes = (
{
closed = 1;
nodes = (
(-242,-142.39,o),
(-248.633,-183,o),
(-299,-183,cs),
(-323.302,-183,o),
(-356,-173.285,o),
(-356,-121,cs),
(-356,-87.279,o),
(-342.91,-59,o),
(-299,-59,cs),
(-274.134,-59,o),
(-242,-69.05,o),
(-242,-121,cs)
);
}
);
width = 0;
}
);
unicode = 803;
},
{
glyphname = uni0361;
layers = (
{
layerId = "646242e4-8f4e-46bc-ac3c-6a140a20cfc2";
name = default;
shapes = (
{
closed = 1;
nodes = (
(-327.662,730.799,o),
(-234.266,825,o),
(0.5,825,cs),
(222.185,825,o),
(320.742,741.173,o),
(377,644,c),
(332,644,l),
(275.281,724.667,o),
(164.763,765,o),
(0.445,765,cs),
(-163.872,765,o),
(-275.021,724.667,o),
(-333,644,c),
(-377,644,l)
);
}
);
width = 0;
}
);
unicode = 865;
},
{
glyphname = overlinecomb;
layers = (
{
anchors = (
{
name = _top;
pos = (0,536);
},
{
name = _topmark;
pos = (0,704);
},
{
name = topmark;
pos = (0,819);
}
);
layerId = "646242e4-8f4e-46bc-ac3c-6a140a20cfc2";
name = default;
shapes = (
{
closed = 1;
nodes = (
(-204,819,l),
(204,819,l),
(204,760,l),
(-204,760,l)
);
}
);
width = 0;
}
);
unicode = 773;
},
{
glyphname = "a-todhri";
layers = (
{
anchors = (
{
name = bottom;
pos = (242,0);
},
{
name = top;
pos = (241,536);
},
{
name = topright;
pos = (473,536);
}
);
layerId = "646242e4-8f4e-46bc-ac3c-6a140a20cfc2";
name = default;
shapes = (
{
closed = 1;
nodes = (
(433,536,l),
(288,0,l),
(185,0,l),
(40,536,l),
(144,536,l),
(172,431,l),
(358,536,l)
);
},
{
closed = 1;
nodes = (
(270.66,128,o),
(367,484,q),
(185,381,l),
(253.354,128,l),
(262,85,l)
);
}
);
width = 473;
}
);
unicode = 67008;
},
{
glyphname = "as-todhri.part";
layers = (
{
layerId = "646242e4-8f4e-46bc-ac3c-6a140a20cfc2";
name = default;
shapes = (
{
closed = 1;
nodes = (
(646.935,353.142,o),
(603.613,290.799,o),
(534.451,290.799,cs),
(485.803,290.799,o),
(440.01,310.523,o),
(397.073,349.972,c),
(423.376,446.355,l),
(465.593,389.886,o),
(505.594,361.651,o),
(543.378,361.651,cs),
(571.804,361.651,o),
(607.262,373.203,o),
(649.751,396.308,c),
(663.598,382.724,l)
);
}
);
width = 1000;
}
);
},
{
glyphname = "n-todhri";
layers = (
{
anchors = (
{
name = bottom;
pos = (243,0);
},
{
name = top;
pos = (262,536);
},
{
name = topright;
pos = (473,536);
}
);
layerId = "646242e4-8f4e-46bc-ac3c-6a140a20cfc2";
name = default;
shapes = (
{
closed = 1;
nodes = (
(433,536,l),
(288,0,l),
(185,0,l),
(40,536,l),
(144,536,l),
(253.418,128,l),
(262,84,l),
(270.655,128,l),
(381,536,l)
);
}
);
width = 473;
}
);
unicode = 67032;
},
{
glyphname = "njan-todhri.Part";
layers = (
{
layerId = "646242e4-8f4e-46bc-ac3c-6a140a20cfc2";
name = default;
shapes = (
{
closed = 1;
nodes = (
(491.496,435.001,o),
(600.093,375.193,o),
(600.093,271.424,cs),
(600.093,234.908,o),
(585.135,197.75,o),
(555.218,159.95,c),
(535.27,163,l),
(536.707,176.115,o),
(537.426,188.533,o),
(537.426,200.253,cs),
(537.426,254.19,o),
(524.812,330.096,o),
(407.271,360.655,c),
(434.31,459.302,l)
);
}
);
width = 1000;
}
);
},
{
glyphname = "b-todhri";
layers = (
{
anchors = (
{
name = bottom;
pos = (438,0);
},
{
name = top;
pos = (437,536.4);
},
{
name = topright;
pos = (873,537.4);
}
);
layerId = "646242e4-8f4e-46bc-ac3c-6a140a20cfc2";
name = default;
shapes = (
{
closed = 1;
nodes = (
(50,475.206,o),
(258.218,547,o),
(437,547,cs),
(624.091,547,o),
(823,466.228,o),
(823,0,c),
(708,0,l),
(708,264.667,o),
(666,419,o),
(582,463,c),
(459,141,l),
(412,141,l),
(289,463,l),
(206.333,413,o),
(165,258.667,o),
(165,0,c),
(50,0,l)
);
},
{
closed = 1;
nodes = (
(506,492.333,o),
(470.833,497,o),
(430.5,497,cs),
(390.167,497,o),
(358,492.667,o),
(334,484,c),
(435,220,l),
(536,483,l)
);
}
);
width = 873;
}
);
unicode = 67010;
},
{
glyphname = "oo-todhri";
layers = (
{
anchors = (
{
name = bottom;
pos = (440,0);
},
{
name = top;
pos = (439,517.4);
},
{
name = topright;
pos = (873,536);
}
);
layerId = "646242e4-8f4e-46bc-ac3c-6a140a20cfc2";
name = default;
shapes = (
{
closed = 1;
nodes = (
(823,69.771,o),
(624.091,-11,o),
(437,-11,cs),
(249.015,-11,o),
(50,69.47,o),
(50,536,c),
(165,536,l),
(165,272,o),
(207.333,117.667,o),
(292,73,c),
(415,395,l),
(461,395,l),
(584,73,l),
(666.667,123,o),
(708,277.333,o),
(708,536,c),
(823,536,l)
);
},
{
closed = 1;
nodes = (
(368,43.667,o),
(403,39,o),
(443,39,cs),
(483,39,o),
(515,43.333,o),
(539,52,c),
(438,316,l),
(338,53,l)
);
}
);
width = 873;
}
);
unicode = 67059;
},
{
glyphname = "g-todhri";
layers = (
{
anchors = (
{
name = bottom;
pos = (290,0);
},
{
name = top;
pos = (201,713);
},
{
name = topright;
pos = (573,714);
}
);
layerId = "646242e4-8f4e-46bc-ac3c-6a140a20cfc2";
name = default;
shapes = (
{
closed = 1;
nodes = (
(256.646,369.518,o),
(213.806,355.352,o),
(177,321,c),
(177,0,l),
(75,0,l),
(75,714,l),
(177,714,l),
(177,384,l),
(216.333,408.667,o),
(261.667,421,o),
(313,421,cs),
(402.408,421,o),
(503,361.96,o),
(503,238,cs),
(503,0,l),
(403,0,l),
(403,238,ls),
(403,281.333,o),
(393.667,314.333,o),
(375,337,cs),
(356.333,359.667,o),
(334.667,371,o),
(310,371,c)
);
}
);
width = 573;
}
);
unicode = 67020;
},
{
glyphname = "ng-todhri.Part";
layers = (
{
layerId = "646242e4-8f4e-46bc-ac3c-6a140a20cfc2";
name = default;
shapes = (
{
closed = 1;
nodes = (
(436.326,714,l),
(148.092,425.768,l),
(112.736,461.123,l),
(365.615,714,l)
);
}
);
width = 1000;
}
);
},
{
glyphname = "i-todhri";
layers = (
{
anchors = (
{
name = bottom;
pos = (126,0);
},
{
name = top;
pos = (127,536.4);
},
{
name = topright;
pos = (250,536);
}
);
layerId = "646242e4-8f4e-46bc-ac3c-6a140a20cfc2";
name = default;
shapes = (
{
closed = 1;
nodes = (
(75,536,l),
(175,536,l),
(175,0,l),
(75,0,l)
);
}
);
width = 250;
}
);
unicode = 67026;
},
{
glyphname = "o-todhri";
layers = (
{
anchors = (
{
name = bottom;
pos = (333,0);
},
{
name = top;
pos = (313,536);
},
{
name = topright;
pos = (635,536);
}
);
layerId = "646242e4-8f4e-46bc-ac3c-6a140a20cfc2";
name = default;
shapes = (
{
closed = 1;
nodes = (
(55,481.355,o),
(207.346,546,o),
(318.5,546,cs),
(389.5,546,o),
(449,524.333,o),
(497,481,cs),
(552.333,432.333,o),
(580,355.667,o),
(580,251,cs),
(580,64.479,o),
(446.318,-10,o),
(322.5,-10,cs),
(267.988,-10,o),
(55,7.44,o),
(55,280,cs)
);
},
{
closed = 1;
nodes = (
(480,385.269,o),
(408.732,496,o),
(304,496,cs),
(274,496,o),
(242.667,481,o),
(210,451,cs),
(173.333,417,o),
(155,366,o),
(155,298,cs),
(155,143.423,o),
(238.441,40,o),
(343,40,cs),
(369.667,40,o),
(398,54.333,o),
(428,83,cs),
(462.667,116.333,o),
(480,168,o),
(480,238,cs)
);
}
);
width = 635;
}
);
unicode = 67034;
},
{
glyphname = "mb-todhri";
layers = (
{
anchors = (
{
name = bottom;
pos = (250,0);
},
{
name = top;
pos = (279,703);
},
{
name = topright;
pos = (445,704);
}
);
layerId = "646242e4-8f4e-46bc-ac3c-6a140a20cfc2";
name = default;
shapes = (
{
closed = 1;
nodes = (
(355,192.35,o),
(304.538,264.341,o),
(191.052,264.341,c),
(157,264,l),
(164.333,114.667,o),
(199.982,40,o),
(263.947,40,cs),
(309.564,40,o),
(355,76.304,o),
(355,133.886,cs)
);
},
{
closed = 1;
nodes = (
(220.973,672.128,o),
(155,542.185,o),
(155,326,cs),
(155,314,l),
(198,314,o),
(230,311.667,o),
(251,307,c),
(292.333,424.333,o),
(313,515.667,o),
(313,581,cs),
(313,643,o),
(301.667,674,o),
(279,674,c)
);
},
{
closed = 1;
nodes = (
(298.412,724,o),
(363,714.02,o),
(363,574,cs),
(363,507.333,o),
(341.333,413,o),
(298,291,c),
(332.108,275.194,o),
(403.392,230.871,o),
(405,136,cs),
(405,78.845,o),
(371.818,-10,o),
(253.448,-10,cs),
(121.149,-10,o),
(55,97.333,o),
(55,312,cs),
(55,519.345,o),
(164.456,724,o),
(280,724,cs)
);
}
);
width = 445;
}
);
unicode = 67011;
},
{
glyphname = "ch-todhri";
layers = (
{
anchors = (
{
name = bottom;
pos = (239,-236);
},
{
name = top;
pos = (238,536);
},
{
name = topright;
pos = (504,536);
}
);
layerId = "646242e4-8f4e-46bc-ac3c-6a140a20cfc2";
name = default;
shapes = (
{
closed = 1;
nodes = (
(144,217.003,o),
(201.415,152,o),
(239,152,cs),
(262.686,152,o),
(295.825,172.644,o),
(310,188,c),
(306,219.333,o),
(304,251,o),
(304,283,cs),
(304,352.333,o),
(313.667,411,o),
(333,459,c),
(295,483.667,o),
(262,496,o),
(234,496,cs),
(198.599,496,o),
(144,474.204,o),
(144,339.727,cs)
);
},
{
closed = 1;
nodes = (
(55,493.625,o),
(162.915,546,o),
(237.5,546,cs),
(272.5,546,o),
(312,532,o),
(356,504,c),
(369.333,525.333,o),
(385.333,544.333,o),
(404,561,c),
(420,557,l),
(409.333,497.667,o),
(404,424.833,o),
(404,338.5,cs),
(404,126.064,o),
(439,63.408,o),
(439,-40,cs),
(439,-110,o),
(417.667,-163,o),
(375,-199,cs),
(342.333,-226.333,o),
(302.333,-240,o),
(255,-240,c),
(255,-190,l),
(334.456,-190,o),
(339,-130.095,o),
(339,-40.5,cs),
(339,3.167,o),
(332,60,o),
(318,130,c),
(291.333,110.667,o),
(257.667,101,o),
(217,101,cs),
(128.603,101,o),
(55,140.297,o),
(55,302,cs)
);
}
);
width = 504;
}
);
unicode = 67013;
},
{
glyphname = "xh-todhri";
layers = (
{
anchors = (
{
name = bottom;
pos = (274,-226);
},
{
name = top;
pos = (238,534);
},
{
name = topright;
pos = (505,536);
}
);
layerId = "646242e4-8f4e-46bc-ac3c-6a140a20cfc2";
name = default;
shapes = (
{
closed = 1;
nodes = (
(144,219.841,o),
(200.374,152,o),
(239,152,cs),
(262.686,152,o),
(295.825,172.644,o),
(310,188,c),
(306,219.333,o),
(304,251,o),
(304,283,cs),
(304,352.333,o),
(313.667,411,o),
(333,459,c),
(293.667,483.667,o),
(261,496,o),
(235,496,cs),
(209,496,o),
(187.333,483.833,o),
(170,459.5,cs),
(152.667,435.167,o),
(144,394,o),
(144,336,cs)
);
},
{
closed = 1;
nodes = (
(157,-73.117,o),
(175.083,-15.699,o),
(323,103,c),
(318,130,l),
(290.309,111.309,o),
(256.158,101.963,o),
(215.547,101.963,cs),
(141.213,101.963,o),
(55,127.268,o),
(55,302,cs),
(55,404,o),
(84.667,475.667,o),
(144,517,cs),
(172,536.333,o),
(203.5,546,o),
(238.5,546,cs),
(273.5,546,o),
(312.667,532,o),
(356,504,c),
(369.333,525.333,o),
(385.333,544.333,o),
(404,561,c),
(420,557,l),
(409.333,497.667,o),
(404,424.833,o),
(404,338.5,cs),
(404,125.904,o),
(439,63.958,o),
(439,-41,cs),
(439,-193.925,o),
(328.182,-240,o),
(271,-240,cs),
(250.197,-240,o),
(157,-239.031,o),
(157,-123.5,cs)
);
},
{
closed = 1;
nodes = (
(218.315,-48.737,o),
(207,-93.073,o),
(207,-129,cs),
(207,-169.667,o),
(226.333,-190,o),
(265,-190,cs),
(334.506,-190,o),
(339,-119.964,o),
(339,-58,cs),
(339,-26,o),
(336.667,8.667,o),
(332,46,c)
);
}
);
width = 504;
}
);
unicode = 67048;
},
{
glyphname = "nxh-todhri.part";
layers = (
{
layerId = "646242e4-8f4e-46bc-ac3c-6a140a20cfc2";
name = default;
shapes = (
{
closed = 1;
nodes = (
(469.657,205.875,o),
(569,333.254,o),
(569,471,cs),
(569,483.883,o),
(554.102,518,o),
(533.5,518,cs),
(524.5,518,o),
(516.667,516,o),
(510,512,c),
(503.333,522.667,o),
(500,531.333,o),
(500,538,cs),
(500,576.148,o),
(535.426,592,o),
(549,592,cs),
(595.667,592,o),
(619,553.833,o),
(619,477.5,cs),
(619,401.167,o),
(598,329.167,o),
(556,261.5,cs),
(514,193.833,o),
(462.333,136.667,o),
(401,90,c),
(370,130,l)
);
}
);
width = 1000;
}
);
},
{
glyphname = "d-todhri";
layers = (
{
anchors = (
{
name = bottom;
pos = (316,0);
},
{
name = top;
pos = (334,699);
},
{
name = topright;
pos = (665,714);
}
);
layerId = "646242e4-8f4e-46bc-ac3c-6a140a20cfc2";
name = default;
shapes = (
{
closed = 1;
nodes = (
(625,0,l),
(519,0,l),
(321.765,588,l),
(306,647,l),
(290.235,588,l),
(93,0,l),
(40,0,l),
(280,714,l),
(385,714,l)
);
}
);
width = 665;
}
);
unicode = 67014;
},
{
glyphname = "nd-todhri";
layers = (
{
anchors = (
{
name = bottom;
pos = (407,0);
},
{
name = top;
pos = (405,536.4);
},
{
name = topright;
pos = (810,536);
}
);
layerId = "646242e4-8f4e-46bc-ac3c-6a140a20cfc2";
name = default;
shapes = (
{
closed = 1;
nodes = (
(770,536,l),
(617,268,l),
(770,0,l),
(655,0,l),
(559,168,l),
(463,0,l),
(348,0,l),
(223,218,l),
(98,0,l),
(40,0,l),
(194,268,l),
(40,536,l),
(155,536,l),
(251,368,l),
(348,536,l),
(463,536,l),
(588,318,l),
(713,536,l)
);
},
{
closed = 1;
nodes = (
(376,486,l),
(280,318,l),
(434,50,l),
(530,218,l)
);
}
);
width = 810;
}
);
unicode = 67015;
},
{
glyphname = "dh-todhri";
layers = (
{
anchors = (
{
name = bottom;
pos = (280,0);
},
{
name = top;
pos = (160,714);
},
{
name = topright;
pos = (549,714);
}
);
layerId = "646242e4-8f4e-46bc-ac3c-6a140a20cfc2";
name = default;
shapes = (
{
closed = 1;
nodes = (
(484,0,l),
(75,0,l),
(75,714,l),
(175,714,l),
(175,121,l),
(445,390,l),
(484,390,l)
);
},
{
closed = 1;
nodes = (
(384,259,l),
(175,50,l),
(384,50,l)
);
}
);
width = 549;
}
);
unicode = 67016;
},
{
glyphname = "e-todhri";
layers = (
{
anchors = (
{
name = bottom;
pos = (152,0);
},
{
name = top;
pos = (185,710);
},
{
name = topright;
pos = (433,714);
}
);
layerId = "646242e4-8f4e-46bc-ac3c-6a140a20cfc2";
name = default;
shapes = (
{
closed = 1;
nodes = (
(380,464.09,o),
(380,401.714,o),
(290,232,c),
(383,210,l),
(372,161,l),
(265,186,l),
(260.333,177.333,o),
(255.333,168.667,o),
(250,160,cs),
(157,0,l),
(100,0,l),
(207,185,ls),
(209.667,189.667,o),
(212,194.333,o),
(214,199,c),
(59,236,l),
(71,284,l),
(236,245,l),
(266,316.333,o),
(281,396,o),
(281,484,cs),
(281,598.47,o),
(210.772,672,o),
(120,672,cs),
(95.333,672,o),
(70.333,664.667,o),
(45,650,c),
(41.667,655.333,o),
(40,662,o),
(40,670,cs),
(40,684.135,o),
(69.521,724,o),
(167.5,724,cs),
(215.833,724,o),
(256.167,712.833,o),
(288.5,690.5,cs),
(331.101,661.074,o),
(380,610.335,o),
(380,498,cs)
);
}
);
width = 433;
}
);
unicode = 67018;
},
{
glyphname = "f-todhri";
layers = (
{
anchors = (
{
name = bottom;
pos = (335,0);
},
{
name = top;
pos = (425,723);
},
{
name = topright;
pos = (667,719);
}
);
layerId = "646242e4-8f4e-46bc-ac3c-6a140a20cfc2";
name = default;
shapes = (
{
closed = 1;
nodes = (
(512,219.606,o),
(505.549,376,o),
(323,376,c),
(323,512.461,o),
(433.969,616.394,o),
(522,634,c),
(536,602,l),
(467.084,582.496,o),
(416,514.433,o),
(416,426,c),
(510.42,426,o),
(612,351.205,o),
(612,226.667,cs),
(612,86.963,o),
(474.945,-10,o),
(335.5,-10,cs),
(191.033,-10,o),
(55,76.72,o),
(55,289.033,cs),
(55,495.353,o),
(188.94,681.377,o),
(482,728,c),
(495,696,l),
(303.035,649.342,o),
(155,509.023,o),
(155,300.87,cs),
(155,132.57,o),
(255.583,40,o),
(351,40,cs),
(380.511,40,o),
(512,48.367,o),
(512,197.5,cs)
);
}
);
width = 667;
}
);
unicode = 67019;
},
{
glyphname = "gj-todhri";
layers = (
{
anchors = (
{
name = bottom;
pos = (290,-231);
},
{
name = top;
pos = (193,712);
},
{
name = topright;
pos = (578,714);
}
);
layerId = "646242e4-8f4e-46bc-ac3c-6a140a20cfc2";
name = default;
shapes = (
{
closed = 1;
nodes = (
(321.422,155.938,o),
(345,182.919,o),
(345,250,cs),
(345,317.333,o),
(319.667,351,o),
(269,351,cs),
(233,351,o),
(202.333,335.667,o),
(177,305,c),
(177,0,l),
(75,0,l),
(75,714,l),
(177,714,l),
(177,364,l),
(205.667,388.667,o),
(236.333,401,o),
(269,401,cs),
(372.677,401,o),
(445,345.697,o),
(445,254,cs),
(445,198.986,o),
(398.806,158.148,o),
(357,152,c),
(357,145,l),
(427.343,145,o),
(528,75.992,o),
(528,-37,cs),
(528,-87.667,o),
(508.5,-134.167,o),
(469.5,-176.5,cs),
(430.5,-218.833,o),
(366.333,-240,o),
(277,-240,cs),
(244.793,-240,o),
(100,-234.574,o),
(100,-137,cs),
(100,-90.408,o),
(142.147,-67,o),
(187,-67,c),
(187,-153.733,o),
(220.813,-190,o),
(299.5,-190,cs),
(323.492,-190,o),
(428,-182.781,o),
(428,-57,cs),
(428,19.552,o),
(376.688,128,o),
(270,128,c),
(270,138,l)
);
}
);
width = 578;
}
);
unicode = 67022;
},
{
glyphname = "h-todhri";
layers = (
{
anchors = (
{
name = bottom;
pos = (314,0);
},
{
name = top;
pos = (314,536);
},
{
name = topright;
pos = (512,536);
}
);
layerId = "646242e4-8f4e-46bc-ac3c-6a140a20cfc2";
name = default;
shapes = (
{
closed = 1;
nodes = (
(242.851,-10,o),
(55,14.045,o),
(55,268,cs),
(55,413.506,o),
(188.714,546,o),
(314,546,cs),
(361.333,546,o),
(414,529.333,o),
(472,496,c),
(458,467,l),
(449.431,474.855,o),
(410.115,496,o),
(349,496,cs),
(294.361,496,o),
(208.477,459.816,o),
(171,375,c),
(413,287,l),
(413,249,l),
(178,163,l),
(201.027,108.09,o),
(256.065,38,o),
(342,38,cs),
(376.667,38,o),
(415.333,45,o),
(458,59,c),
(472,28,l),
(410,2.667,o),
(357.333,-10,o),
(314,-10,cs)
);
},
{
closed = 1;
nodes = (
(348,268,l),
(159,337,l),
(156.333,324.333,o),
(155,311.333,o),
(155,298,cs),
(155,262,o),
(158.667,229.667,o),
(166,201,c)
);
}
);
width = 512;
}
);
unicode = 67024;
},
{
glyphname = "hj-todhri";
layers = (
{
anchors = (
{
name = bottom;
pos = (203,0);
},
{
name = top;
pos = (198,536);
},
{
name = topright;
pos = (512,536);
}
);
layerId = "646242e4-8f4e-46bc-ac3c-6a140a20cfc2";
name = default;
shapes = (
{
closed = 1;
nodes = (
(269.149,546,o),
(457,521.955,o),
(457,268,cs),
(457,122.494,o),
(323.286,-10,o),
(198,-10,cs),
(150.667,-10,o),
(98,6.667,o),
(40,40,c),
(54,69,l),
(62.569,61.145,o),
(101.885,40,o),
(163,40,cs),
(217.639,40,o),
(303.523,76.184,o),
(341,161,c),
(99,249,l),
(99,287,l),
(334,373,l),
(310.973,427.91,o),
(255.935,498,o),
(170,498,cs),
(135.333,498,o),
(96.667,491,o),
(54,477,c),
(40,508,l),
(102,533.333,o),
(154.667,546,o),
(198,546,cs)
);
},
{
closed = 1;
nodes = (
(164,268,l),
(353,199,l),
(355.667,211.667,o),
(357,224.667,o),
(357,238,cs),
(357,274,o),
(353.333,306.333,o),
(346,335,c)
);
}
);
width = 512;
}
);
unicode = 67025;
},
{
glyphname = "k-todhri";
layers = (
{
anchors = (
{
name = bottom;
pos = (264,0);
},
{
name = top;
pos = (277,536.4);
},
{
name = topright;
pos = (422,536);
}
);
layerId = "646242e4-8f4e-46bc-ac3c-6a140a20cfc2";
name = default;
shapes = (
{
closed = 1;
nodes = (
(212.852,-10,o),
(55,66.979,o),
(55,268.5,cs),
(55,416.444,o),
(196.847,546,o),
(349,546,cs),
(355,546,o),
(361,545.667,o),
(367,545,c),
(367,495,l),
(361,495.667,o),
(351.667,496,o),
(339,496,cs),
(304.333,496,o),
(265.667,479,o),
(223,445,cs),
(177.667,408.333,o),
(155,356.667,o),
(155,290,cs),
(155,147.778,o),
(240.263,40,o),
(348,40,cs),
(354,40,o),
(360.333,40.333,o),
(367,41,c),
(367,-9,l),
(360.333,-9.667,o),
(354,-10,o),
(348,-10,cs)
);
}
);
width = 422;
}
);
unicode = 67028;
},
{
glyphname = "j-todhri";
layers = (
{
anchors = (
{
name = bottom;
pos = (150,0);
},
{
name = top;
pos = (156,536.4);
},
{
name = topright;
pos = (422,536);
}
);
layerId = "646242e4-8f4e-46bc-ac3c-6a140a20cfc2";
name = default;
shapes = (
{
closed = 1;
nodes = (
(209.148,546,o),
(367,469.021,o),
(367,267.5,cs),
(367,119.556,o),
(225.153,-10,o),
(73,-10,cs),
(67,-10,o),
(61,-9.667,o),
(55,-9,c),
(55,41,l),
(61,40.333,o),
(70.333,40,o),
(83,40,cs),
(117.667,40,o),
(156.333,57,o),
(199,91,cs),
(244.333,127.667,o),
(267,179.333,o),
(267,246,cs),
(267,388.222,o),
(181.737,496,o),
(74,496,cs),
(68,496,o),
(61.667,495.667,o),
(55,495,c),
(55,545,l),
(61.667,545.667,o),
(68,546,o),
(74,546,cs)
);
}
);
width = 422;
}
);
unicode = 67027;
},
{
glyphname = "l-todhri";
layers = (
{
anchors = (
{
name = bottom;
pos = (360,-242);
},
{
name = top;
pos = (366,536);
},
{
name = topright;
pos = (545,536);
}
);
layerId = "646242e4-8f4e-46bc-ac3c-6a140a20cfc2";
name = default;
shapes = (
{
closed = 1;
nodes = (
(154.454,-10,o),
(55,42.745,o),
(55,171,cs),
(55,277.914,o),
(157.512,363.886,o),
(348,365,cs),
(368,365,l),
(368,537,l),
(468,537,l),
(468,-242,l),
(368,-242,l),
(368,-10,l),
(348,-10,ls)
);
},
{
closed = 1;
nodes = (
(155,51.097,o),
(301.51,40,o),
(348,40,cs),
(368,40,l),
(368,315,l),
(348,315,ls),
(193.68,315,o),
(155,258.573,o),
(155,191,cs)
);
}
);
width = 543;
}
);
unicode = 67029;
},
{
glyphname = "ll-todhri";
layers = (
{
anchors = (
{
name = bottom;
pos = (266,-232);
},
{
name = top;
pos = (259,536);
},
{
name = topright;
pos = (519,536);
}
);
layerId = "646242e4-8f4e-46bc-ac3c-6a140a20cfc2";
name = default;
shapes = (
{
closed = 1;
nodes = (
(75,536,l),
(175,536,l),
(175,370,l),
(346,370,l),
(346,536,l),
(446,536,l),
(446,-240,l),
(346,-240,l),
(346,155,l),
(175,155,l),
(175,-240,l),
(75,-240,l)
);
},
{
closed = 1;
nodes = (
(175,320,l),
(175,205,l),
(346,205,l),
(346,320,l)
);
}
);
width = 521;
}
);
unicode = 67030;
},
{
glyphname = "m-todhri";
layers = (
{
anchors = (
{
name = bottom;
pos = (304,0);
},
{
name = top;
pos = (361,702);
},
{
name = topright;
pos = (573,714);
}
);
layerId = "646242e4-8f4e-46bc-ac3c-6a140a20cfc2";
name = default;
shapes = (
{
closed = 1;
nodes = (
(55,401.825,o),
(167.187,495,o),
(293.442,495,cs),
(319.814,495,o),
(344.667,491.333,o),
(368,484,c),
(368,714,l),
(468,714,l),
(468,432,l),
(392,432,l),
(372.667,440.667,o),
(349.103,445,o),
(321.309,445,cs),
(193.115,445,o),
(154,337.152,o),
(154,246.511,cs),
(154,134.351,o),
(215.415,40,o),
(308.395,40,cs),
(378.87,40,o),
(431,90.03,o),
(431,185,c),
(478.867,185,o),
(518,159.828,o),
(518,113.418,cs),
(518,44.395,o),
(430.177,-10,o),
(300.988,-10,cs),
(89.778,-10,o),
(55,122.001,o),
(55,226.888,cs)
);
}
);
width = 573;
}
);
unicode = 67031;
},
{
glyphname = "p-todhri";
layers = (
{
anchors = (
{
name = bottom;
pos = (372,0);
},
{
name = top;
pos = (374,536.4);
},
{
name = topright;
pos = (707,536);
}
);
layerId = "646242e4-8f4e-46bc-ac3c-6a140a20cfc2";
name = default;
shapes = (
{
closed = 1;
nodes = (
(75,0,l),
(75,536,l),
(175,536,l),
(175,121,l),
(602,547,l),
(632,547,l),
(632,0,l)
);
},
{
closed = 1;
nodes = (
(175,50,l),
(532,50,l),
(532,407,l)
);
}
);
width = 707;
}
);
unicode = 67035;
},
{
glyphname = "q-todhri";
layers = (
{
anchors = (
{
name = bottom;
pos = (359,-234);
},
{
name = top;
pos = (381,536);
},
{
name = topright;
pos = (695,536);
}
);
layerId = "646242e4-8f4e-46bc-ac3c-6a140a20cfc2";
name = default;
shapes = (
{
closed = 1;
nodes = (
(233.483,496,o),
(155,470.307,o),
(155,363.5,cs),
(155,268.918,o),
(244.116,184.586,o),
(335,178,c),
(566,536,l),
(625,536,l),
(393,176,l),
(513.667,167.333,o),
(591.333,124,o),
(626,46,cs),
(636,23.333,o),
(641,-0.667,o),
(641,-26,cs),
(641,-162.482,o),
(517.163,-240,o),
(387,-240,c),
(387,-190,l),
(462.517,-190,o),
(541,-164.307,o),
(541,-57.5,cs),
(541,37.082,o),
(451.884,121.414,o),
(361,128,c),
(130,-230,l),
(70,-230,l),
(303,130,l),
(182.333,138.667,o),
(104.667,182,o),
(70,260,cs),
(60,282.667,o),
(55,306.667,o),
(55,332,cs),
(55,468.482,o),
(178.837,546,o),
(309,546,c),
(309,496,l)
);
}
);
width = 696;
}
);
unicode = 67036;
},
{
glyphname = "r-todhri";
layers = (
{
anchors = (
{
name = bottom;
pos = (151,-11);
},
{
name = top;
pos = (150,536.4);
},
{
name = topright;
pos = (386,536);
}
);
layerId = "646242e4-8f4e-46bc-ac3c-6a140a20cfc2";
name = default;
shapes = (
{
closed = 1;
nodes = (
(241,285.921,o),
(202.142,322.152,o),
(65,331,c),
(65,536,l),
(165,536,l),
(165,372,l),
(205.667,368,o),
(245.167,357,o),
(283.5,339,cs),
(321.833,321,o),
(341,293.333,o),
(341,256,cs),
(341,129.889,o),
(143.141,6.059,o),
(99,-20,c),
(47,0,l),
(49.405,1.692,o),
(241,137.783,o),
(241,221,cs)
);
}
);
width = 386;
}
);
unicode = 67037;
},
{
glyphname = "rr-todhri";
layers = (
{
anchors = (
{
name = bottom;
pos = (173,-220);
},
{
name = top;
pos = (199,536);
},
{
name = topright;
pos = (459,536);
}
);
layerId = "646242e4-8f4e-46bc-ac3c-6a140a20cfc2";
name = default;
shapes = (
{
closed = 1;
nodes = (
(215.847,218,o),
(310,230.328,o),
(310,344,cs),
(310,465.917,o),
(252.094,496,o),
(175,496,c),
(175,218,l)
);
},
{
closed = 1;
nodes = (
(410,253.848,o),
(321.933,168,o),
(175,168,c),
(175,-45,ls),
(175,-133,o),
(156,-191.333,o),
(118,-220,cs),
(100.667,-233.333,o),
(82.167,-240,o),
(62.5,-240,cs),
(51.557,-240,o),
(-2,-237.57,o),
(-2,-190,c),
(56.269,-190,o),
(75,-173.441,o),
(75,-102,cs),
(75,546,l),
(125,546,ls),
(269.95,546,o),
(410,516.867,o),
(410,368.5,cs)
);
}
);
width = 460;
}
);
unicode = 67038;
},
{
glyphname = "s-todhri";
layers = (
{
anchors = (
{
name = bottom;
pos = (247,0);
},
{
name = top;
pos = (250,536);
},
{
name = topright;
pos = (472,536);
}
);
layerId = "646242e4-8f4e-46bc-ac3c-6a140a20cfc2";
name = default;
shapes = (
{
closed = 1;
nodes = (
(392.364,165,o),
(417,135.553,o),
(417,95.503,cs),
(417,55.663,o),
(400.036,28.119,o),
(366.107,12.872,cs),
(332.179,-2.376,o),
(294.482,-10,o),
(253.017,-10,cs),
(121.006,-10,o),
(55,42.333,o),
(55,147,cs),
(55,197.655,o),
(72.255,236.56,o),
(106.765,263.715,cs),
(199.996,337.078,o),
(315.788,333.049,o),
(315.788,419,cs),
(315.788,472.333,o),
(289.881,499,o),
(238.065,499,cs),
(178.022,499,o),
(148,463.667,o),
(148,393,c),
(125.992,393,o),
(76,398.967,o),
(76,453.187,cs),
(76,479.798,o),
(92.874,545,o),
(258.277,545,cs),
(296.989,545,o),
(410,533.47,o),
(410,398.839,cs),
(410,355.25,o),
(400.061,295.015,o),
(272.356,240.225,cs),
(196.945,207.872,o),
(148.195,186.684,o),
(148.195,124.18,cs),
(148.195,40.655,o),
(225.049,38,o),
(234.82,38,cs),
(303.6,38,o),
(354,90.168,o),
(354,165,c)
);
}
);
width = 472;
}
);
unicode = 67039;
},
{
glyphname = "sh-todhri";
layers = (
{
anchors = (
{
name = bottom;
pos = (253,13);
},
{
name = top;
pos = (272,713);
},
{
name = topright;
pos = (536,714);
}
);
layerId = "646242e4-8f4e-46bc-ac3c-6a140a20cfc2";
name = default;
shapes = (
{
closed = 1;
nodes = (
(125,676.38,o),
(201.605,724,o),
(263,724,cs),
(334.935,724,o),
(402,662.86,o),
(402,569,cs),
(402,518.333,o),
(385,466.333,o),
(351,413,cs),
(309,347,l),
(506,0,l),
(391,0,l),
(255,240,l),
(249,268,l),
(246,268,l),
(240,240,l),
(89,0,l),
(30,0,l),
(220,301,l),
(187,360,ls),
(145.667,434,o),
(125,500.667,o),
(125,560,cs)
);
},
{
closed = 1;
nodes = (
(352,627.545,o),
(320.619,674,o),
(274,674,cs),
(229.559,674,o),
(209,625.732,o),
(209,585,cs),
(209,541.21,o),
(224.333,491.877,o),
(255,437,cs),
(274,403,l),
(280,376,l),
(283,376,l),
(289,403,l),
(311,440,ls),
(317.62,450.903,o),
(352,510.26,o),
(352,567,cs)
);
}
);
width = 536;
}
);
unicode = 67040;
},
{
glyphname = "sht-todhri.part";
layers = (
{
layerId = "646242e4-8f4e-46bc-ac3c-6a140a20cfc2";
name = default;
shapes = (
{
closed = 1;
nodes = (
(438.735,668.819,o),
(530.518,555.751,o),
(530.518,378.976,cs),
(530.518,0,l),
(480.518,0,l),
(480.518,385.582,ls),
(480.518,452.653,o),
(465.029,512.597,o),
(434.053,565.414,cs),
(403.076,618.231,o),
(365.106,654.227,o),
(320.143,673.4,c),
(336.795,712.289,l)
);
}
);
width = 1000;
}
);
},
{
glyphname = "t-todhri";
layers = (
{
anchors = (
{
name = bottom;
pos = (232,-2);
},
{
name = top;
pos = (203,709);
},
{
name = topright;
pos = (415,714);
}
);
layerId = "646242e4-8f4e-46bc-ac3c-6a140a20cfc2";
name = default;
shapes = (
{
closed = 1;
nodes = (
(55,573.34,o),
(74.108,724,o),
(203,724,cs),
(300.368,724,o),
(340,638.96,o),
(340,550,cs),
(340,0,l),
(240,0,l),
(240,224,l),
(210,224,ls),
(136.862,224,o),
(55,299.366,o),
(55,484,cs)
);
},
{
closed = 1;
nodes = (
(105,355.521,o),
(151.996,274,o),
(210,274,cs),
(240,274,l),
(240,567,ls),
(240,580.546,o),
(237.972,674,o),
(182,674,cs),
(124.534,674,o),
(105,550.846,o),
(105,475,cs)
);
}
);
width = 415;
}
);
unicode = 67042;
},
{
glyphname = "ca-todhri.part";
layers = (
{
layerId = "646242e4-8f4e-46bc-ac3c-6a140a20cfc2";
name = default;
shapes = (
{
closed = 1;
nodes = (
(573,50,l),
(573,0,l),
(395,0,l),
(395,50,l)
);
}
);
width = 1000;
}
);
},
{
glyphname = "th-todhri";
layers = (
{
anchors = (
{
name = bottom;
pos = (249,0);
},
{
name = top;
pos = (262,708);
},
{
name = topright;
pos = (502,714);
}
);
layerId = "646242e4-8f4e-46bc-ac3c-6a140a20cfc2";
name = default;
shapes = (
{
closed = 1;
nodes = (
(40,290.222,o),
(112.932,293,o),
(114,293,cs),
(141.333,293,o),
(175,279.333,o),
(215,252,c),
(243.198,295.863,o),
(278.942,341.023,o),
(312.5,390,cs),
(329.783,415.224,o),
(362,472.98,o),
(362,553,cs),
(362,620.876,o),
(322.092,674,o),
(260,674,cs),
(241.628,674,o),
(160.108,668.952,o),
(150,580,c),
(111.634,588.221,o),
(106,626.814,o),
(106,638,cs),
(106,638.265,o),
(108.135,724,o),
(262,724,cs),
(395.333,724,o),
(462,670.333,o),
(462,563,cs),
(462,485.667,o),
(421.667,408,o),
(341,330,cs),
(303.667,293.333,o),
(275,257.333,o),
(255,222,c),
(276.11,203.288,o),
(331.037,154.604,o),
(331.037,73.456,cs),
(331.037,19.927,o),
(288.117,-14,o),
(249,-14,cs),
(194.639,-14,o),
(158.975,21.408,o),
(158.975,76.142,cs),
(158.975,110.004,o),
(165.65,144.29,o),
(179,179,c),
(128.333,203,o),
(82,215.333,o),
(40,216,c)
);
},
{
closed = 1;
nodes = (
(278.585,36,o),
(281,67.624,o),
(281,77,cs),
(281,107,o),
(261.667,135.333,o),
(223,162,c),
(213,134.667,o),
(208,110,o),
(208,88,cs),
(208,53.333,o),
(220.667,36,o),
(246,36,cs)
);
}
);
width = 502;
}
);
unicode = 67043;
},
{
glyphname = "v-todhri";
layers = (
{
anchors = (
{
name = bottom;
pos = (257,0);
},
{
name = top;
pos = (257,715);
},
{
name = topright;
pos = (407,714);
}
);
layerId = "646242e4-8f4e-46bc-ac3c-6a140a20cfc2";
name = default;
shapes = (
{
closed = 1;
nodes = (
(54.996,616.346,o),
(160.274,724,o),
(257,724,cs),
(283.667,724,o),
(308,710.667,o),
(330,684,cs),
(352,657.333,o),
(363,616,o),
(363,560,cs),
(363,533.937,o),
(355.945,346.068,o),
(155,281,c),
(157.58,159.747,o),
(173.785,36,o),
(280,36,c),
(280,-14,l),
(129.997,-14,o),
(54.996,105.936,o),
(54.996,345.809,cs)
);
},
{
closed = 1;
nodes = (
(309.958,393.288,o),
(313,541.456,o),
(313,553,cs),
(313,633.667,o),
(292.333,674,o),
(251,674,cs),
(188.333,674,o),
(156.333,560.667,o),
(155,334,c)
);
}
);
width = 408;
}
);
unicode = 67045;
},
{
glyphname = "x-todhri";
layers = (
{
anchors = (
{
name = bottom;
pos = (183,-224);
},
{
name = top;
pos = (262,536);
},
{
name = topright;
pos = (526,536);
}
);
layerId = "646242e4-8f4e-46bc-ac3c-6a140a20cfc2";
name = default;
shapes = (
{
closed = 1;
nodes = (
(481,536,l),
(481,506,l),
(159,-240,l),
(50,-240,l),
(248,219,l),
(51,322,l),
(198,486,l),
(50,486,l),
(50,536,l)
);
},
{
closed = 1;
nodes = (
(143,365,l),
(280,293,l),
(364,486,l),
(252,486,l)
);
}
);
width = 526;
}
);
unicode = 67046;
},
{
glyphname = "nx-todhri";
layers = (
{
anchors = (
{
name = bottom;
pos = (276,0);
},
{
name = top;
pos = (269,536);
},
{
name = topright;
pos = (531,536);
}
);
layerId = "646242e4-8f4e-46bc-ac3c-6a140a20cfc2";
name = default;
shapes = (
{
closed = 1;
nodes = (
(481,536,l),
(481,506,l),
(182,50,l),
(481,50,l),
(481,0,l),
(50,0,l),
(50,30,l),
(192,249,l),
(51,322,l),
(198,486,l),
(50,486,l),
(50,536,l)
);
},
{
closed = 1;
nodes = (
(143,365,l),
(236,316,l),
(346,486,l),
(252,486,l)
);
}
);
width = 531;
}
);
unicode = 67047;
},
{
glyphname = "y-todhri";
layers = (
{
anchors = (
{
name = bottom;
pos = (294,-102);
},
{
name = top;
pos = (340,714);
},
{
name = topright;
pos = (583,743);
}
);
layerId = "646242e4-8f4e-46bc-ac3c-6a140a20cfc2";
name = default;
shapes = (
{
closed = 1;
nodes = (
(383.497,-67.46,o),
(483,-13.523,o),
(483,98,cs),
(483,141.285,o),
(458.608,203.324,o),
(388,229,c),
(388,147,ls),
(388,80.45,o),
(316.88,-10,o),
(219,-10,cs),
(111.47,-10,o),
(50,71.902,o),
(50,150,cs),
(50,247.549,o),
(128.353,346,o),
(227,346,cs),
(251.667,346,o),
(272,345,o),
(288,343,c),
(288,714,l),
(388,714,l),
(388,321,l),
(475.406,286.038,o),
(533,212.523,o),
(533,95,cs),
(533,5.589,o),
(474.579,-80.621,o),
(375,-127,c),
(354,-81,l)
);
},
{
closed = 1;
nodes = (
(254.685,40,o),
(288,109.375,o),
(288,179,cs),
(288,246,l),
(237.5,246,o),
(100,236.581,o),
(100,134,cs),
(100,93.97,o),
(137.477,40,o),
(177,40,cs)
);
}
);
width = 583;
}
);
unicode = 67050;
},
{
glyphname = "jy-todhri.part";
layers = (
{
layerId = "646242e4-8f4e-46bc-ac3c-6a140a20cfc2";
name = default;
shapes = (
{
closed = 1;
nodes = (
(172.01,714,l),
(272.01,714,l),
(272.01,239.35,l),
(172.01,239.35,l)
);
}
);
width = 1000;
}
);
},
{
glyphname = "st-todhri";
layers = (
{
anchors = (
{
name = bottom;
pos = (274,0);
},
{
name = top;
pos = (305,714);
},
{
name = topright;
pos = (577,714);
}
);
layerId = "646242e4-8f4e-46bc-ac3c-6a140a20cfc2";
name = default;
shapes = (
{
closed = 1;
nodes = (
(369.616,40,o),
(418,82.259,o),
(418,216.49,cs),
(418,286.83,o),
(403.398,343.639,o),
(374.195,386.916,cs),
(348.065,425.639,o),
(306.715,445,o),
(250.144,445,cs),
(223.381,445,o),
(200,440.667,o),
(180,432,c),
(105,432,l),
(105,714,l),
(483,714,l),
(483,664,l),
(205,664,l),
(205,478,l),
(243,489.333,o),
(278.098,495,o),
(310.295,495,cs),
(372.765,495,o),
(422.253,474.162,o),
(458.759,432.487,cs),
(497.586,388.162,o),
(517,327.481,o),
(517,250.442,cs),
(517,168.796,o),
(491.065,-10,o),
(263.898,-10,cs),
(141.582,-10,o),
(55,45.789,o),
(55,113.64,cs),
(55,157.901,o),
(84.553,179.656,o),
(142,185,c),
(142,88.333,o),
(187.797,40,o),
(279.39,40,cs)
);
}
);
width = 577;
}
);
unicode = 67055;
},
{
glyphname = "gh-todhri";
layers = (
{
anchors = (
{
name = bottom;
pos = (328,0);
},
{
name = top;
pos = (362,714);
},
{
name = topright;
pos = (645,714);
}
);
layerId = "646242e4-8f4e-46bc-ac3c-6a140a20cfc2";
name = default;
shapes = (
{
closed = 1;
nodes = (
(30,714,l),
(136,714,l),
(193,545,l),
(362,714,l),
(512,564,l),
(562,714,l),
(615,714,l),
(375,0,l),
(270,0,l)
);
},
{
closed = 1;
nodes = (
(334,629,l),
(207,502,l),
(339.265,108,l),
(349,67,l),
(358.787,108,l),
(484,479,l)
);
}
);
width = 645;
}
);
unicode = 67054;
},
{
glyphname = "z-todhri";
layers = (
{
anchors = (
{
name = bottom;
pos = (231,1);
},
{
name = top;
pos = (340,714);
},
{
name = topright;
pos = (689,714);
}
);
layerId = "646242e4-8f4e-46bc-ac3c-6a140a20cfc2";
name = default;
shapes = (
{
closed = 1;
nodes = (
(410,553.667,o),
(422.333,538.667,o),
(447,532,c),
(447,576.667,o),
(439.333,599,o),
(424,599,cs),
(414.667,599,o),
(410,591.667,o),
(410,577,cs)
);
},
{
closed = 1;
nodes = (
(418.957,485.982,o),
(360,505.697,o),
(360,577,cs),
(360,619.882,o),
(391.273,649,o),
(422,649,cs),
(425.485,649,o),
(497,647.905,o),
(497,558,cs),
(497,531,l),
(556.867,541.885,o),
(617.725,585.418,o),
(626,613,c),
(674,600,l),
(659.251,546.367,o),
(571.156,487.227,o),
(493,479,c),
(473.874,328.542,o),
(394.607,200.039,o),
(249,0,c),
(149,0,l),
(149,436,l),
(87.948,436,o),
(25,508.192,o),
(25,576,cs),
(25,653.48,o),
(102.32,724,o),
(232,724,c),
(232,674,l),
(193.969,674,o),
(125,663.217,o),
(125,585,cs),
(125,521.952,o),
(167.111,462,o),
(249,462,c),
(249,75,l),
(274.887,138.28,o),
(415.503,287.949,o),
(442,481,c)
);
}
);
width = 689;
}
);
unicode = 67052;
},
{
glyphname = "zh-todhri";
layers = (
{
anchors = (
{
name = bottom;
pos = (294,0);
},
{
name = top;
pos = (279,710);
},
{
name = topright;
pos = (579,714);
}
);
layerId = "646242e4-8f4e-46bc-ac3c-6a140a20cfc2";
name = default;
shapes = (
{
closed = 1;
nodes = (
(332.129,40,o),
(418,63.498,o),
(418,200,cs),
(418,309.696,o),
(353.972,363.773,o),
(304,405,c),
(143,99,l),
(173.667,59.667,o),
(217,40,o),
(273,40,cs)
);
},
{
closed = 1;
nodes = (
(341,654.667,o),
(327,674,o),
(299,674,cs),
(271,674,o),
(257,652.333,o),
(257,609,cs),
(257,588.333,o),
(274.667,559.333,o),
(310,522,c),
(330.667,565.333,o),
(341,596.667,o),
(341,616,cs)
);
},
{
closed = 1;
nodes = (
(519,76.509,o),
(413.553,-10,o),
(309,-10,cs),
(221,-10,o),
(157,10.333,o),
(117,51,c),
(84,-12,l),
(40,12,l),
(85,96,l),
(65.443,135.114,o),
(58.432,149.135,o),
(50,205,c),
(99,212,l),
(103,190,o),
(108,170,o),
(114,152,c),
(265,437,l),
(263.667,438.333,o),
(258.667,442.333,o),
(250,449,cs),
(196,491.667,o),
(169,541.333,o),
(169,598,cs),
(169,647.608,o),
(197.818,724,o),
(280,724,cs),
(353.333,724,o),
(390.333,689,o),
(391,619,cs),
(391,618,ls),
(391,585.333,o),
(376.667,541.667,o),
(348,487,c),
(352.667,483,o),
(362,475.333,o),
(376,464,cs),
(431.265,418.938,o),
(519,347.4,o),
(519,209,cs)
);
}
);
width = 579;
}
);
unicode = 67053;
},
{
glyphname = "skan-todhri";
layers = (
{
anchors = (
{
name = bottom;
pos = (272,0);
},
{
name = top;
pos = (262,536.4);
},
{
name = topright;
pos = (535,536);
}
);
layerId = "646242e4-8f4e-46bc-ac3c-6a140a20cfc2";
name = default;
shapes = (
{
closed = 1;
nodes = (
(376.67,273.381,o),
(485.998,229.296,o),
(485.998,144.309,cs),
(485.998,119.461,o),
(479.322,68.781,o),
(430.273,31.713,cs),
(403.139,11.206,o),
(340.599,-10,o),
(277.035,-10,cs),
(232.838,-10,o),
(162.787,-10,o),
(95.97,36.565,cs),
(65.323,57.923,o),
(50,90.628,o),
(50,134.682,cs),
(50,189.137,o),
(82.295,229.556,o),
(183.396,271.03,c),
(108.192,307.698,o),
(70.591,353.653,o),
(70.591,408.894,cs),
(70.591,424.51,o),
(74.567,472.966,o),
(120.838,508.104,cs),
(145.363,526.728,o),
(202.035,546,o),
(259.31,546,cs),
(298.854,546,o),
(360.321,546,o),
(418.418,503.422,cs),
(444.969,483.963,o),
(458.245,455.066,o),
(458.245,416.731,cs),
(458.245,351.635,o),
(408.142,320.109,o),
(337.383,289.21,c)
);
},
{
closed = 1;
nodes = (
(173.543,496,o),
(170.591,422.045,o),
(170.591,413.228,cs),
(170.591,371.472,o),
(199.941,346.567,o),
(286.353,311.935,c),
(334.343,333.59,o),
(358.245,361.606,o),
(358.245,406.596,cs),
(358.245,446.89,o),
(343.663,496,o),
(272.572,496,cs)
);
},
{
closed = 1;
nodes = (
(232.242,242.845,o),
(150,200.879,o),
(150,138.285,cs),
(150,119.252,o),
(156.342,99.698,o),
(169.025,79.624,cs),
(185.716,53.208,o),
(221.462,40,o),
(276.263,40,cs),
(280.618,40,o),
(385.998,40.891,o),
(385.998,127.106,cs),
(385.998,168.894,o),
(336.369,208.283,o),
(237.112,245.275,c)
);
}
);
width = 535;
}
);
unicode = 67056;
},
{
glyphname = "ps-todhri";
layers = (
{
anchors = (
{
name = bottom;
pos = (328,-256);
},
{
name = top;
pos = (366,537);
},
{
name = topright;
pos = (707,536);
}
);
layerId = "646242e4-8f4e-46bc-ac3c-6a140a20cfc2";
name = default;
shapes = (
{
closed = 1;
nodes = (
(175,50,l),
(532,50,l),
(532,407,l)
);
},
{
closed = 1;
nodes = (
(187,-128.752,o),
(208.055,-220,o),
(332.5,-220,cs),
(382.167,-220,o),
(426.667,-207.333,o),
(466,-182,cs),
(510,-154.133,o),
(532,-108.133,o),
(532,-44,cs),
(532,0,l),
(75,0,l),
(75,536,l),
(175,536,l),
(175,121,l),
(602,547,l),
(632,547,l),
(632,-21,ls),
(632,-187,o),
(529.333,-270,o),
(324,-270,cs),
(250.667,-270,o),
(195,-257.333,o),
(157,-232,cs),
(119,-206.667,o),
(100,-175,o),
(100,-137,cs),
(100,-90.408,o),
(142.147,-67,o),
(187,-67,c)
);
}
);
width = 707;
}
);
unicode = 67058;
},
{
glyphname = "kh-todhri";
layers = (
{
anchors = (
{
name = bottom;
pos = (269,0);
},
{
name = top;
pos = (288,714);
},
{
name = topright;
pos = (549,714);
}
);
layerId = "646242e4-8f4e-46bc-ac3c-6a140a20cfc2";
name = default;
shapes = (
{
closed = 1;
nodes = (
(489,714,l),
(318.238,402.97,l),
(509,0,l),
(398,0,l),
(258.633,294.403,l),
(97,0,l),
(40,0,l),
(232.241,350.153,l),
(60,714,l),
(171,714,l),
(291.847,458.721,l),
(432,714,l)
);
}
);
width = 549;
}
);
unicode = 67057;
},
{
glyphname = gravecomb;
layers = (
{
anchors = (
{
name = _top;
pos = (-333,536);
},
{
name = _topmark;
pos = (-333,536);
},
{
name = topmark;
pos = (-333,766);
}
);
layerId = "646242e4-8f4e-46bc-ac3c-6a140a20cfc2";
name = default;
shapes = (
{
closed = 1;
nodes = (
(-306.203,730.306,o),
(-270.349,664.276,o),
(-236,619,c),
(-236,606,l),
(-274,606,l),
(-335.124,648.317,o),
(-401.593,718.855,o),
(-430,756,c),
(-430,766,l),
(-323,766,l)
);
}
);
width = 0;
}
);
unicode = 768;
},
{
glyphname = acute;
layers = (
{
layerId = "646242e4-8f4e-46bc-ac3c-6a140a20cfc2";
name = default;
shapes = (
{
closed = 1;
nodes = (
(212.849,726.035,o),
(138.131,646.087,o),
(78,606,c),
(40,606,l),
(40,619,l),
(74.746,664.801,o),
(110.625,731.202,o),
(127,766,c),
(234,766,l),
(234,756,l)
);
}
);
width = 274;
}
);
unicode = 180;
},
{
glyphname = dotabovemod;
layers = (
{
layerId = "646242e4-8f4e-46bc-ac3c-6a140a20cfc2";
name = default;
shapes = (
{
closed = 1;
nodes = (
(154,676.61,o),
(147.367,636,o),
(97,636,cs),
(72.698,636,o),
(40,645.715,o),
(40,698,cs),
(40,731.721,o),
(53.09,760,o),
(97,760,cs),
(121.866,760,o),
(154,749.95,o),
(154,698,cs)
);
}
);
width = 194;
}
);
unicode = 729;
},
{
glyphname = macronmod;
layers = (
{
layerId = "646242e4-8f4e-46bc-ac3c-6a140a20cfc2";
name = default;
shapes = (
{
closed = 1;
nodes = (
(40,675,l),
(330,675,l),
(330,616,l),
(40,616,l)
);
}
);
width = 370;
}
);
unicode = 713;
},
{
glyphname = breveinvertedcmb;
layers = (
{
anchors = (
{
name = _top;
pos = (0,536);
},
{
name = _topmark;
pos = (0,536);
},
{
name = topmark;
pos = (0,743);
}
);
layerId = "646242e4-8f4e-46bc-ac3c-6a140a20cfc2";
name = default;
shapes = (
{
closed = 1;
nodes = (
(-54.472,674,o),
(-84.299,649.653,o),
(-94,606,c),
(-140,606,l),
(-138.748,641.068,o),
(-124.407,743,o),
(0,743,cs),
(47.333,743,o),
(82.333,729.5,o),
(105,702.5,cs),
(127.667,675.5,o),
(139.333,643.333,o),
(140,606,c),
(94,606,l),
(84.296,649.669,o),
(54.453,674,o),
(0,674,cs)
);
}
);
width = 0;
}
);
unicode = 785;
},
